<svg xmlns="http://www.w3.org/2000/svg" width="43" height="43" viewBox="0 0 43 43">
  <g id="그룹_5" data-name="그룹 5" transform="translate(-2293 -2860)">
    <rect id="사각형_82" data-name="사각형 82" width="43" height="43" transform="translate(2293 2860)" fill="none"/>
    <path id="패스_12" data-name="패스 12" d="M21.644,33.848C33.073,25.055,29.432,21.475,24.577,9S35.7,4.6,35.5,4.5,30.039-.1,23.363,0,6.372,7.875,6.557,13.908s4.872,14.009,6.187,16.668-.465,4.97-5.725,4.356A8.769,8.769,0,0,1,0,29.963s8.3,17.053,19.419,2.658c2.529-3.272-1.668-14.787-1.668-14.787s7.636,5.789,3.893,14.787L19.92,34.932Z" transform="translate(2296.35 2862.729)" fill="#73b02e"/>
  </g>
</svg>
