<svg width="170" height="57" viewBox="0 0 170 57" fill="none" xmlns="http://www.w3.org/2000/svg">
<g clip-path="url(#clip0_60_2165)">
<path d="M49.7298 43.3414C48.5681 42.9219 48.348 42.6422 48.348 42.161C48.348 41.6798 48.6823 41.2973 49.477 41.2973C50.0599 41.2973 50.4471 41.4906 50.871 41.8443L51.2867 41.3302C50.7976 40.9354 50.3004 40.7051 49.5178 40.7051C48.4336 40.7051 47.7 41.2644 47.7 42.2022C47.7 43.0494 48.1239 43.4607 49.3792 43.9131C50.443 44.2997 50.765 44.6082 50.765 45.1511C50.765 45.7721 50.2841 46.1587 49.5137 46.1587C48.9146 46.1587 48.4092 45.879 47.969 45.4554L47.541 45.9407C47.9975 46.4096 48.7026 46.7551 49.4934 46.7551C50.7039 46.7551 51.4172 46.0394 51.4172 45.1223C51.4172 44.2051 51.0218 43.8144 49.7338 43.3455L49.7298 43.3414Z" fill="white"/>
<path d="M54.0497 42.1742C53.4831 42.1742 52.9696 42.3141 52.5864 42.5238L52.8228 43.0338C53.1774 42.8241 53.5524 42.6966 54.0089 42.6966C54.6447 42.6966 54.9545 43.0133 54.9545 43.6713V44.1895C54.6977 44.0456 54.3024 43.9345 53.8662 43.9345C53.0062 43.9345 52.1992 44.3541 52.1992 45.3411C52.1992 46.4023 52.9125 46.7477 53.5891 46.7477C54.2168 46.7477 54.6447 46.4516 54.9545 46.1185V46.6573H55.574V43.5891C55.574 42.5691 54.9871 42.166 54.0497 42.166V42.1742ZM54.9504 45.5838C54.6855 45.9498 54.2616 46.2419 53.6991 46.2419C53.1652 46.2419 52.8065 45.9581 52.8065 45.3041C52.8065 44.753 53.1897 44.4404 53.8296 44.4404C54.3594 44.4404 54.6651 44.5391 54.9504 44.6954V45.5879V45.5838Z" fill="white"/>
<path d="M61.8262 44.0863V46.6609H62.4458V43.9835C62.4458 42.7003 61.8914 42.1738 61.0029 42.1738C60.2937 42.1738 59.9391 42.507 59.6823 42.9265C59.4745 42.507 59.1036 42.1738 58.4881 42.1738C57.9745 42.1738 57.6077 42.4247 57.3835 42.8031V42.2684H56.7559V46.6651H57.3835V44.0904C57.3835 43.1157 57.7544 42.7167 58.3536 42.7167C58.9527 42.7167 59.291 43.0828 59.291 44.0904V46.6651H59.9146V44.0904C59.9146 43.1157 60.2937 42.7167 60.8847 42.7167C61.5124 42.7167 61.8221 43.0828 61.8221 44.0904L61.8262 44.0863Z" fill="white"/>
<path d="M64.9448 44.103C64.2071 43.7657 63.987 43.6218 63.987 43.2475C63.987 42.9267 64.2478 42.7046 64.7084 42.7046C65.169 42.7046 65.4543 42.828 65.7926 43.0994L66.139 42.6347C65.8089 42.3591 65.3442 42.1699 64.7492 42.1699C63.9544 42.1699 63.3878 42.6223 63.3878 43.2886C63.3878 43.9919 63.7506 44.2593 64.6269 44.6376C65.3972 44.9708 65.654 45.1723 65.654 45.5342C65.654 45.962 65.3728 46.2129 64.7736 46.2129C64.3416 46.2129 63.934 46.036 63.5875 45.7275L63.2207 46.1841C63.6364 46.5213 64.1582 46.7475 64.7573 46.7475C65.5113 46.7475 66.2491 46.3733 66.2491 45.5054C66.2491 44.7199 65.7681 44.4772 64.9407 44.0989L64.9448 44.103Z" fill="white"/>
<path d="M69.885 44.8342C69.885 45.7966 69.4081 46.2038 68.8089 46.2038C68.1079 46.2038 67.7777 45.7802 67.7777 44.8342V42.2637H67.1582V44.9411C67.1582 46.2038 67.7655 46.7508 68.6826 46.7508C69.2328 46.7508 69.6363 46.4917 69.885 46.1215V46.6603H70.5086V42.2637H69.885V44.8342Z" fill="white"/>
<path d="M74.9111 46.6609V43.9835C74.9111 42.7167 74.3038 42.1738 73.3826 42.1738C72.8365 42.1738 72.4289 42.4329 72.1843 42.8031V42.2684H71.5566V46.6651H72.1843V44.0904C72.1843 43.128 72.653 42.7167 73.2563 42.7167C73.9532 42.7167 74.2875 43.1445 74.2875 44.0904V46.6651H74.9111V46.6609Z" fill="white"/>
<path d="M76.8716 47.7963L77.0713 48.2734C78.6895 48.224 79.2764 47.5865 79.2764 46.2622V42.2604H78.6528V42.7539C78.3471 42.4002 77.9721 42.1699 77.4259 42.1699C76.513 42.1699 75.7793 42.9719 75.7793 44.5307C75.7793 46.0895 76.4722 46.7475 77.3404 46.7475C77.9314 46.7475 78.3471 46.4514 78.6528 46.1183V46.3445C78.6528 47.3686 78.3226 47.7552 76.8676 47.7922L76.8716 47.7963ZM77.5034 46.2046C76.8146 46.2046 76.3988 45.6288 76.3988 44.5225C76.3988 43.3421 76.7534 42.7128 77.4789 42.7128C77.9966 42.7128 78.4164 43.0048 78.6569 43.3709V45.5713C78.3512 45.9579 77.968 46.2046 77.5034 46.2046Z" fill="white"/>
<path d="M86.1468 43.6863C86.1468 41.6751 85.0219 40.7949 83.4975 40.7949H81.9609V46.6598H83.3834C84.9363 46.6598 86.1468 45.8126 86.1468 43.6863ZM82.609 41.3872H83.4486C84.7855 41.3872 85.4988 42.2097 85.4988 43.7068C85.4988 45.3931 84.7162 46.0635 83.4649 46.0635H82.609V41.3872Z" fill="white"/>
<path d="M87.8072 42.807V42.2641H87.1836V46.6607H87.8072V44.0779C87.8072 43.2388 88.1496 42.7494 88.7569 42.7494C89.0463 42.7494 89.2338 42.8152 89.409 42.918L89.5639 42.2847C89.4172 42.2189 89.2093 42.1777 88.8832 42.1777C88.4145 42.1777 88.0028 42.4615 87.8072 42.8111V42.807Z" fill="white"/>
<path d="M93.2891 46.2412L92.9957 45.7888C92.5962 46.0562 92.2987 46.2083 91.7892 46.2083C91.08 46.2083 90.6357 45.612 90.5787 44.6783H93.4807C93.5011 44.5755 93.5092 44.485 93.5092 44.337C93.5092 43.0826 92.8897 42.1777 91.7525 42.1777C90.7173 42.1777 89.9551 43.0455 89.9551 44.4398C89.9551 46.1713 90.9251 46.7553 91.724 46.7553C92.3802 46.7553 92.7633 46.5785 93.2891 46.2453V46.2412ZM91.7525 42.7165C92.5147 42.7165 92.8815 43.3129 92.9305 44.1642H90.5787C90.652 43.1813 91.1045 42.7165 91.7525 42.7165Z" fill="white"/>
<path d="M95.5876 46.7516C96.2112 46.7516 96.6392 46.4555 96.9449 46.1224V46.6612H97.5685V43.593C97.5685 42.573 96.9816 42.1699 96.0441 42.1699C95.4776 42.1699 94.964 42.3098 94.5809 42.5195L94.8132 43.0295C95.1719 42.8198 95.5428 42.6923 95.9993 42.6923C96.6392 42.6923 96.9449 43.0089 96.9449 43.667V44.1852C96.6881 44.0413 96.2968 43.9302 95.8607 43.9302C94.9966 43.9302 94.1855 44.3497 94.1855 45.3368C94.1855 46.3979 94.9029 46.7434 95.5836 46.7434L95.5876 46.7516ZM95.8281 44.4361C96.358 44.4361 96.6677 44.5348 96.949 44.6911V45.5836C96.684 45.9496 96.2602 46.2416 95.6977 46.2416C95.1678 46.2416 94.8051 45.9579 94.8051 45.3039C94.8051 44.7528 95.1923 44.4402 95.8281 44.4402V44.4361Z" fill="white"/>
<path d="M103.82 44.0863V46.6609H104.443V43.9835C104.443 42.7003 103.889 42.1738 103 42.1738C102.295 42.1738 101.937 42.507 101.684 42.9265C101.476 42.507 101.105 42.1738 100.49 42.1738C99.9721 42.1738 99.6093 42.4247 99.3852 42.8031V42.2684H98.7656V46.6651H99.3852V44.0904C99.3852 43.1157 99.7601 42.7167 100.359 42.7167C100.958 42.7167 101.301 43.0828 101.301 44.0904V46.6651H101.92V44.0904C101.92 43.1157 102.299 42.7167 102.894 42.7167C103.522 42.7167 103.832 43.0828 103.832 44.0904L103.82 44.0863Z" fill="white"/>
<path d="M49.7298 52.0639C48.5641 51.6444 48.3521 51.3688 48.3521 50.8835C48.3521 50.3982 48.6863 50.0239 49.4811 50.0239C50.064 50.0239 50.4553 50.2131 50.8751 50.5668L51.2908 50.0568C50.8017 49.6661 50.3004 49.4316 49.5219 49.4316C48.4336 49.4316 47.7041 49.9828 47.7041 50.9287C47.7041 51.776 48.1279 52.1831 49.3833 52.6356C50.4471 53.0263 50.7691 53.3306 50.7691 53.8776C50.7691 54.4946 50.2881 54.8812 49.5137 54.8812C48.9146 54.8812 48.4092 54.6015 47.969 54.1779L47.541 54.6632C47.9975 55.1321 48.7026 55.4734 49.4934 55.4734C50.7039 55.4734 51.4131 54.7619 51.4131 53.8406C51.4131 52.9193 51.0177 52.5327 49.7338 52.0639H49.7298Z" fill="white"/>
<path d="M54.0589 51.4396C54.4991 51.4396 54.7885 51.5959 55.1023 51.8838L55.4773 51.4149C55.1349 51.1106 54.6825 50.8926 54.0997 50.8926C53.1867 50.8926 52.2207 51.5794 52.2207 53.204C52.2207 54.7381 53.097 55.4702 54.0548 55.4702C54.6662 55.4702 55.0901 55.2358 55.4569 54.8574L55.082 54.4584C54.7844 54.7504 54.5032 54.9232 54.0793 54.9232C53.309 54.9232 52.8484 54.2281 52.8484 53.1464C52.8484 52.0647 53.3742 51.4314 54.0548 51.4314L54.0589 51.4396Z" fill="white"/>
<path d="M58.1385 50.8963C57.5923 50.8963 57.1807 51.1554 56.932 51.5256V49.4609H56.3125V55.3917H56.932V52.817C56.932 51.8546 57.4089 51.4433 58.0121 51.4433C58.7132 51.4433 59.0433 51.867 59.0433 52.817V55.3917H59.6669V52.706C59.6669 51.4433 59.0596 50.8963 58.1385 50.8963Z" fill="white"/>
<path d="M62.4464 50.8965C61.3867 50.8965 60.543 51.6985 60.543 53.1915C60.543 54.6844 61.3541 55.4782 62.4138 55.4782C63.4735 55.4782 64.3254 54.6515 64.3254 53.1586C64.3254 51.6656 63.5061 50.8965 62.4464 50.8965ZM62.4342 54.9312C61.6761 54.9312 61.1666 54.3307 61.1666 53.175C61.1666 52.0193 61.6761 51.4435 62.4342 51.4435C63.1923 51.4435 63.7018 52.0193 63.7018 53.175C63.7018 54.3307 63.1882 54.9312 62.4342 54.9312Z" fill="white"/>
<path d="M65.8873 49.457H65.2637V55.3878H65.8873V49.457Z" fill="white"/>
<path d="M68.735 50.8965C68.1685 50.8965 67.6549 51.0404 67.2759 51.2502L67.5082 51.7643C67.8669 51.5545 68.2419 51.427 68.6984 51.427C69.3342 51.427 69.644 51.7478 69.644 52.3977V52.92C69.3872 52.7761 68.9959 52.665 68.5598 52.665C67.6957 52.665 66.8887 53.0845 66.8887 54.0757C66.8887 55.1368 67.6019 55.4782 68.2826 55.4782C68.9062 55.4782 69.3342 55.1862 69.644 54.853V55.3918H70.2676V52.3278C70.2676 51.2995 69.6766 50.9006 68.7391 50.9006L68.735 50.8965ZM69.6399 54.306C69.379 54.668 68.947 54.9641 68.3886 54.9641C67.8587 54.9641 67.5001 54.6803 67.5001 54.0264C67.5001 53.4711 67.8832 53.1668 68.5231 53.1668C69.053 53.1668 69.3586 53.2573 69.6399 53.4177V54.306Z" fill="white"/>
<path d="M72.0728 51.5344V50.9833H71.4492V55.384H72.0728V52.8011C72.0728 51.9662 72.407 51.4686 73.0184 51.4686C73.3119 51.4686 73.4994 51.5344 73.6746 51.6372L73.8336 50.9997C73.6828 50.9339 73.479 50.8887 73.1529 50.8887C72.6883 50.8887 72.2685 51.1725 72.0769 51.5303L72.0728 51.5344Z" fill="white"/>
<path d="M76.2223 52.8295C75.4846 52.4923 75.2604 52.3401 75.2604 51.9741C75.2604 51.6574 75.5253 51.4312 75.9818 51.4312C76.4383 51.4312 76.7318 51.5587 77.0701 51.826L77.4165 51.3653C77.0823 51.0898 76.6217 50.8965 76.0226 50.8965C75.2319 50.8965 74.6572 51.3489 74.6572 52.0193C74.6572 52.6897 75.024 52.9899 75.8962 53.3642C76.6666 53.6973 76.9233 53.903 76.9233 54.2608C76.9233 54.6926 76.6421 54.9394 76.047 54.9394C75.6109 54.9394 75.2074 54.7626 74.8569 54.4541L74.4941 54.9147C74.9099 55.252 75.4316 55.4741 76.0307 55.4741C76.7848 55.4741 77.5225 55.0957 77.5225 54.2361C77.5225 53.4464 77.0416 53.2079 76.2182 52.8295H76.2223Z" fill="white"/>
<path d="M80.3672 50.8963C79.8128 50.8963 79.4093 51.1554 79.1607 51.5256V49.4609H78.5371V55.3917H79.1607V52.817C79.1607 51.8546 79.6335 51.4433 80.2408 51.4433C80.9378 51.4433 81.2679 51.867 81.2679 52.817V55.3917H81.8915V52.706C81.8915 51.4433 81.2883 50.8963 80.3672 50.8963Z" fill="white"/>
<path d="M83.7426 50.9824H83.123V55.3832H83.7426V50.9824Z" fill="white"/>
<path d="M83.4446 49.3047C83.1919 49.3047 82.9922 49.5062 82.9922 49.7612C82.9922 50.0162 83.1919 50.2054 83.4446 50.2054C83.6769 50.2054 83.8766 49.9998 83.8766 49.7612C83.8766 49.5062 83.6769 49.3047 83.4446 49.3047Z" fill="white"/>
<path d="M86.9341 50.8965C86.3472 50.8965 85.9314 51.1926 85.6217 51.5258V50.987H84.998V57.0041H85.6217V54.8942C85.9273 55.2438 86.3023 55.4782 86.8526 55.4782C87.7615 55.4782 88.4951 54.6721 88.4951 53.1174C88.4951 51.5628 87.8022 50.8965 86.9341 50.8965ZM86.7996 54.9312C86.286 54.9312 85.8621 54.6392 85.6217 54.269V52.0728C85.9273 51.6903 86.3105 51.4394 86.7751 51.4394C87.468 51.4394 87.8838 52.0152 87.8838 53.1215C87.8838 54.3019 87.5251 54.9271 86.8037 54.9271L86.7996 54.9312Z" fill="white"/>
<path d="M91.7926 50.1157H94.556V49.5234H91.1445V55.3884H91.7926V52.6533H93.3863V52.0611H91.7926V50.1157Z" fill="white"/>
<path d="M96.4466 50.8965C95.3868 50.8965 94.5391 51.6985 94.5391 53.1915C94.5391 54.6844 95.3542 55.4782 96.414 55.4782C97.4737 55.4782 98.3255 54.6515 98.3255 53.1586C98.3255 51.6656 97.5144 50.8965 96.4466 50.8965ZM96.4343 54.9312C95.6762 54.9312 95.1749 54.3307 95.1749 53.175C95.1749 52.0193 95.6803 51.4435 96.4343 51.4435C97.1884 51.4435 97.706 52.0193 97.706 53.175C97.706 54.3307 97.1925 54.9312 96.4343 54.9312Z" fill="white"/>
<path d="M101.762 53.5571C101.762 54.5195 101.293 54.9308 100.686 54.9308C99.9889 54.9308 99.6547 54.5071 99.6547 53.5571V50.9824H99.0352V53.664C99.0352 54.9266 99.6425 55.4737 100.564 55.4737C101.106 55.4737 101.513 55.2187 101.762 54.8485V55.3873H102.39V50.9865H101.762V53.5612V53.5571Z" fill="white"/>
<path d="M105.26 50.8967C104.713 50.8967 104.306 51.1558 104.057 51.526V50.9872H103.434V55.3879H104.057V52.8133C104.057 51.8509 104.53 51.4396 105.137 51.4396C105.834 51.4396 106.164 51.8632 106.164 52.8133V55.3879H106.788V52.7022C106.788 51.4396 106.181 50.8926 105.26 50.8926V50.8967Z" fill="white"/>
<path d="M110.534 51.4847C110.224 51.131 109.853 50.8924 109.303 50.8924C108.39 50.8924 107.66 51.6944 107.66 53.2573C107.66 54.8202 108.349 55.4741 109.221 55.4741C109.812 55.4741 110.224 55.1821 110.53 54.849V55.3878H111.153V49.457H110.53V51.4847H110.534ZM110.534 54.2979C110.224 54.6804 109.845 54.9312 109.38 54.9312C108.691 54.9312 108.276 54.3554 108.276 53.2491C108.276 52.0646 108.63 51.4394 109.356 51.4394C109.869 51.4394 110.289 51.7314 110.534 52.1016V54.2937V54.2979Z" fill="white"/>
<path d="M113.794 50.8965C113.231 50.8965 112.718 51.0404 112.335 51.2502L112.563 51.7643C112.922 51.5545 113.297 51.427 113.753 51.427C114.389 51.427 114.695 51.7478 114.695 52.3977V52.92C114.438 52.7761 114.047 52.665 113.606 52.665C112.746 52.665 111.939 53.0845 111.939 54.0757C111.939 55.1368 112.657 55.4782 113.337 55.4782C113.961 55.4782 114.389 55.1862 114.695 54.853V55.3918H115.318V52.3278C115.318 51.2995 114.731 50.9006 113.79 50.9006L113.794 50.8965ZM114.699 54.306C114.434 54.668 114.014 54.9641 113.443 54.9641C112.918 54.9641 112.563 54.6803 112.563 54.0264C112.563 53.4711 112.942 53.1668 113.582 53.1668C114.112 53.1668 114.422 53.2573 114.699 53.4177V54.306Z" fill="white"/>
<path d="M117.308 49.457H116.681V50.9829H116.143V51.5135H116.681V54.4788C116.681 55.2068 116.974 55.47 117.516 55.47C117.842 55.47 118.075 55.4207 118.315 55.322L118.36 54.7791C118.16 54.8613 117.997 54.9024 117.744 54.9024C117.414 54.9024 117.308 54.7667 117.308 54.376V51.5135H118.388V50.9829H117.308V49.457Z" fill="white"/>
<path d="M119.802 49.3047C119.546 49.3047 119.342 49.5062 119.342 49.7612C119.342 50.0162 119.546 50.2054 119.802 50.2054C120.035 50.2054 120.23 49.9998 120.23 49.7612C120.23 49.5062 120.031 49.3047 119.802 49.3047Z" fill="white"/>
<path d="M120.1 50.9824H119.477V55.3832H120.1V50.9824Z" fill="white"/>
<path d="M122.945 50.8965C121.885 50.8965 121.037 51.6985 121.037 53.1915C121.037 54.6844 121.848 55.4782 122.912 55.4782C123.976 55.4782 124.82 54.6515 124.82 53.1586C124.82 51.6656 124.004 50.8965 122.945 50.8965ZM122.928 54.9312C122.174 54.9312 121.665 54.3307 121.665 53.175C121.665 52.0193 122.174 51.4435 122.928 51.4435C123.682 51.4435 124.2 52.0193 124.2 53.175C124.2 54.3307 123.686 54.9312 122.928 54.9312Z" fill="white"/>
<path d="M127.547 50.8967C127.001 50.8967 126.593 51.1558 126.34 51.526V50.9872H125.717V55.3879H126.34V52.8133C126.34 51.8509 126.813 51.4396 127.421 51.4396C128.117 51.4396 128.452 51.8632 128.452 52.8133V55.3879H129.071V52.7022C129.071 51.4396 128.464 50.8926 127.547 50.8926V50.8967Z" fill="white"/>
<path d="M71.52 29.25C69.0175 29.2541 66.9551 31.2283 66.9551 33.7042C66.9551 36.1802 69.0175 38.1338 71.52 38.142C74.0471 38.1338 76.0891 36.1555 76.0891 33.7042C76.0891 31.253 74.0471 29.2541 71.52 29.25ZM71.4589 36.1102C70.1506 36.1102 69.1642 35.0327 69.1642 33.7042C69.1642 32.3758 70.2198 31.2776 71.5241 31.2776C72.8284 31.2776 73.8474 32.3552 73.8474 33.7042C73.8474 35.0532 72.7795 36.1102 71.463 36.1102H71.4589Z" fill="white"/>
<path d="M50.5739 26.1855C51.2709 26.8806 52.0697 27.4893 52.8564 27.88L52.9379 27.9253L54.287 26.3172L54.1566 26.2431C52.8768 25.5439 51.8741 24.6597 51.2179 23.5451C50.5657 22.447 50.2315 21.172 50.2315 19.6461V18.2148H47.8186V19.4939C47.8186 21.1473 47.4477 22.447 46.7507 23.5862C45.9722 24.8489 44.8188 25.8647 43.3433 26.8066L43.2129 26.8888L44.6761 28.4188L44.7576 28.3736C45.6299 27.8965 46.5551 27.1603 47.358 26.3377C48.055 25.618 48.6582 24.8489 49.0251 24.1209C49.3797 24.8365 49.9218 25.5645 50.5739 26.1897V26.1855Z" fill="white"/>
<path d="M47.9609 37.09H58.0609V30.127H47.9609V37.09ZM50.2312 32.0929H55.7907V35.1241H50.2312V32.0929Z" fill="white"/>
<path d="M81.6367 37.09H93.0573V30.127H81.6367V37.09ZM83.8825 32.0929H90.8156V35.1241H83.8825V32.0929Z" fill="white"/>
<path d="M58.1013 17.8047H55.8555V29.3289H58.1013V24.229H60.7302V22.1808H58.1013V17.8047Z" fill="white"/>
<path d="M104.665 26.7737C105.403 27.4194 106.247 27.9623 107.042 28.3119L107.123 28.3489L108.338 26.6914L108.207 26.6256C107.05 26.0293 106.019 25.2889 105.277 24.3841C104.523 23.4628 104.074 22.3524 104.074 21.0157V20.625H107.417V18.6426H98.3438V20.625H101.682V21.1021C101.682 22.3195 101.282 23.4546 100.618 24.4376C99.8396 25.618 98.7025 26.568 97.5979 27.185L97.4512 27.2631L98.9429 28.8219L99.0245 28.7808C99.8274 28.3201 100.716 27.625 101.474 26.8436C102.081 26.202 102.628 25.5234 102.962 24.8448C103.365 25.5028 103.985 26.1609 104.67 26.7737H104.665Z" fill="white"/>
<path d="M120.906 32.1378H129.07V37.0856H131.336V30.1719H120.906V32.1378Z" fill="white"/>
<path d="M126.54 24.2119C126.54 23.122 126.054 22.1185 125.337 21.3535H127.579V19.3917H123.299V17.2324H120.866V19.3917H116.484V21.3535H118.775C118.074 22.1185 117.589 23.1138 117.589 24.2119C117.589 26.6426 119.574 28.6168 122.056 28.625C124.538 28.6168 126.535 26.6426 126.54 24.2119ZM119.753 24.1214C119.753 22.7765 120.878 21.6373 122.056 21.6373C123.234 21.6373 124.355 22.7807 124.359 24.1214C124.359 25.4458 123.234 26.5892 122.056 26.5933C120.874 26.5892 119.757 25.4458 119.753 24.1214Z" fill="white"/>
<path d="M131.337 17.8047H129.096V29.37H131.337V24.9569H133.975V22.9087H131.337V17.8047Z" fill="white"/>
<path d="M112.316 17.8047H110.074V29.37H112.316V24.229H114.949V22.1808H112.316V17.8047Z" fill="white"/>
<path d="M74.2621 21.2348H70.7324V23.2624H74.2621V29.7361H76.5079V17.8047H74.2621V21.2348Z" fill="white"/>
<path d="M68.5612 26.4858C69.2622 27.1767 70.0814 27.7854 70.864 28.1967L70.9496 28.2461L72.2987 26.638L72.1683 26.5639C70.8885 25.8853 69.9062 25.0052 69.2459 23.907C68.5775 22.8171 68.2432 21.4928 68.2432 19.9669V18.2148H65.8263V19.8189C65.8263 21.4722 65.4594 22.7678 64.7788 23.8865C64.0043 25.1697 62.8264 26.1938 61.351 27.1274L61.2246 27.2096L62.696 28.7437L62.7694 28.6944C63.6375 28.2132 64.5424 27.5181 65.3453 26.7243C66.0708 25.9964 66.674 25.2026 67.0409 24.4417C67.3873 25.1368 67.9172 25.8442 68.5612 26.4899V26.4858Z" fill="white"/>
<path d="M107.501 29.25C104.998 29.2541 102.936 31.2283 102.932 33.7042C102.936 36.1555 104.994 38.1338 107.501 38.142C110.024 38.1338 112.07 36.1555 112.07 33.7042C112.07 31.253 110.024 29.2541 107.501 29.25ZM107.435 36.1102C106.131 36.1102 105.137 35.0327 105.137 33.7042C105.137 32.3758 106.188 31.2776 107.501 31.2776C108.813 31.2776 109.82 32.3552 109.824 33.7042C109.824 35.0286 108.752 36.1102 107.435 36.1102Z" fill="white"/>
<path d="M84.3716 24.4128H86.6174V18.5273H80.5566V20.4851H84.3716V24.4128Z" fill="white"/>
<path d="M91.1117 24.4128H93.3616V18.5273H87.3008V20.4851H91.1117V24.4128Z" fill="white"/>
<path d="M148.358 23.0157H146.471V18.1255H144.348V36.5922H146.471V25.2366H148.358V37.0857H150.559V17.8047H148.358V23.0157Z" fill="white"/>
<path d="M141.233 25.5688C140.728 24.4542 140.52 23.208 140.52 21.678V20.95H143.067V18.873H135.666V20.95H138.295V21.7191C138.295 23.1669 138.107 24.3514 137.655 25.4495C137.129 26.7121 136.244 27.8473 134.834 29.0647L134.736 29.1552L136.13 30.5494L136.216 30.4836C136.917 29.9613 137.651 29.2045 138.262 28.4231C138.78 27.765 139.216 27.0823 139.489 26.4818C139.77 27.0658 140.21 27.7362 140.724 28.3614C141.319 29.0935 141.991 29.7886 142.635 30.204L142.721 30.2615L143.895 28.8467L143.801 28.7603C142.538 27.6499 141.755 26.6587 141.241 25.5647L141.233 25.5688Z" fill="white"/>
<path d="M78.6777 27.1517H86.1325V29.348H88.5658V27.1517H96.1387V25.1816H78.6777V27.1517Z" fill="white"/>
<path d="M163.344 26.5228H155.755V20.6949H161.534V18.6426H153.48V28.5134H163.344V26.5228Z" fill="white"/>
<path d="M159.053 30.9414H156.783V37.086H167.401V35.0625H159.053V30.9414Z" fill="white"/>
<path d="M167.347 23.1434V17.8008H165.105V32.0271H167.347V25.1916H170.001V23.1434H167.347Z" fill="white"/>
<path d="M47.6092 11.8532L41.7929 9.42254L47.6092 6.99185L46.5739 4.47889L40.7617 6.90959L43.1706 1.04055L40.6761 0L38.2714 5.86904L35.8626 0L33.3681 1.04055L35.777 6.90959L29.9648 4.47889L28.9336 6.99185L34.7458 9.42254L28.9336 11.8532L29.9648 14.3662L35.777 11.9355L33.3681 17.8045L35.8626 18.8451L38.2714 12.9802L40.6761 18.8451L43.1706 17.8004L40.7617 11.9355L46.5739 14.3662L47.6092 11.8532Z" fill="white"/>
<path d="M9.97731 28.2267H13.8453V17.8047H0.619141V21.3171H9.97731V28.2267Z" fill="white"/>
<path d="M25.0672 28.2267H28.9351V17.8047H15.709V21.3171H25.0672V28.2267Z" fill="white"/>
<path d="M0 33.6178H25.0665V38.9851H28.9345V30.1055H0V33.6178Z" fill="white"/>
<path d="M9.35742 55.3875H28.9338V40.791H9.35742V55.3875ZM13.2213 44.3075H25.0658V51.8793H13.2213V44.3075Z" fill="white"/>
</g>
<defs>
<clipPath id="clip0_60_2165">
<rect width="170" height="57" fill="white"/>
</clipPath>
</defs>
</svg>
