<svg width="218" height="35" viewBox="0 0 218 35" fill="none" xmlns="http://www.w3.org/2000/svg">
<g clip-path="url(#clip0_42_231)">
<path d="M217.817 17.7483L211.43 17.6656V22.0716C211.43 27.7394 210.453 31.8972 209.985 33.1384C209.68 33.49 208.968 33.6969 208.541 33.5728C208.277 32.5799 207.727 29.4977 207.727 24.3677V4.5509C207.727 3.72348 205.429 2.00657 204.574 1.73766C204.351 1.65492 205.083 0.786123 205.307 0.786123C207.056 0.786123 211.653 1.86177 211.552 2.6892C211.47 3.24771 211.43 3.90965 211.43 4.63364V15.9693L216.271 14.0249C216.698 13.8594 218.61 17.7483 217.837 17.7483M204.554 19.8996C205.225 20.8511 203.415 24.8848 202.764 23.9333C201.828 22.5887 199.265 18.6171 196.967 15.9693C193.895 20.334 190.071 23.8505 186.633 25.7122C186.206 25.6709 185.698 25.0296 185.698 24.6366C189.949 20.7891 194.749 14.0456 196.763 7.90196C196.885 7.55031 195.441 6.47466 194.811 6.08163C194.607 5.95752 195.482 5.29558 195.706 5.29558C196.865 5.29558 200.079 6.64014 200.852 7.19865C201.279 7.50894 201.32 7.71579 201.116 8.23293C200.262 10.4877 199.123 12.639 197.841 14.6248C200.73 16.652 203.924 18.9894 204.554 19.8996ZM183.907 18.1206L177.48 17.9965V22.0716C177.48 27.7394 176.585 31.8972 176.076 33.1384C175.771 33.49 175.059 33.6969 174.672 33.5728C174.367 32.5799 173.859 29.4977 173.859 24.3677V4.5509C173.859 3.72348 171.56 2.08931 170.706 1.73766C170.502 1.65492 171.214 0.786123 171.438 0.786123C173.187 0.786123 177.683 1.86177 177.602 2.6892C177.561 3.24771 177.48 3.90965 177.48 4.63364V16.321L182.341 14.4179C182.809 14.2111 184.721 18.1 183.907 18.1M163.017 20.0651C164.807 20.0651 166.129 18.8033 166.129 16.8588C166.129 14.9144 164.888 13.6112 163.017 13.6112C161.145 13.6112 159.904 14.9144 159.904 16.8588C159.904 18.8033 161.145 20.0651 163.017 20.0651ZM156.935 3.53731C156.894 3.37182 157.097 2.834 157.321 2.85468C158.603 3.10291 159.904 3.33045 161.532 3.53731L165.498 3.9717C165.844 4.01307 167.37 6.14369 166.353 6.14369H160.352C159.335 6.14369 156.996 3.88896 156.914 3.53731M152.948 8.35705C152.907 8.23293 153.151 7.79854 153.253 7.83991C153.924 8.08813 156.304 8.15019 158.562 8.10882L166.678 8.02608C169.017 7.98471 169.709 6.80563 170.075 6.80563C170.462 6.80563 171.947 8.89487 171.947 9.86709C171.947 10.0326 171.784 10.136 171.519 10.136C171.133 10.136 168.875 10.0119 167.085 10.0119L158.359 10.0533C156.955 10.0533 156.019 10.3635 155.592 10.7566C154.494 10.4463 153.131 8.77076 152.988 8.33636M172.333 24.5745C168.834 26.2087 162.122 27.1602 157.525 27.7394C156.284 27.9049 155.531 28.1325 154.799 28.5669C153.619 28.2566 151.91 26.4983 151.748 25.8364C151.788 25.6295 151.951 25.4433 152.053 25.3192C153.334 25.3192 155.206 25.3606 157.464 25.2365C158.867 25.1537 160.189 25.071 161.389 24.9676L161.166 21.5544C158.196 21.0373 156.365 19.2583 156.365 16.7968C156.365 14.1076 158.664 12.2873 162.284 12.0805C162.325 11.915 162.366 11.8115 162.366 11.6461C162.366 11.3358 162.284 10.9634 161.857 10.6531C161.857 9.90846 164.197 10.6531 164.197 11.0462C164.197 11.2117 163.993 11.6874 163.891 12.0805C167.431 12.3287 169.668 14.149 169.668 16.7968C169.668 19.2583 167.756 21.0373 164.827 21.5544L164.664 24.6366C168.367 24.2022 170.869 23.6023 172.537 23.0438C172.882 22.9197 172.74 24.347 172.313 24.5539M128.009 5.27489L127.968 11.8943H137.041L137.264 5.27489H127.989H128.009ZM122.13 3.80622C122.09 3.59936 122.639 2.93742 122.903 2.93742C123.575 2.93742 125.893 3.02017 127.419 3.28908H136.064C137.163 3.28908 137.732 3.12359 138.159 2.73057C138.627 2.56508 141.658 3.04085 141.597 3.55799L140.316 11.5219C140.865 12.0391 141.597 13.0734 141.597 13.6319C141.597 13.7974 141.434 13.9008 141.17 13.9008C140.783 13.9008 139.339 13.8594 137.163 13.8594H127.582C127.338 14.2938 127.033 14.6868 126.687 15.1005C126.341 15.4522 125.71 15.6177 125.243 15.4936C124.856 14.542 124.531 12.7217 124.266 9.4327L123.92 5.31627C123.88 4.92324 122.781 4.05445 122.13 3.80622ZM143.713 31.9386C143.713 32.1041 143.591 32.2075 143.285 32.2075H139.278L127.358 32.2489C124.042 32.2489 123.391 31.0905 123.391 28.8358V25.464C123.391 24.8641 122.151 23.8299 121.439 23.7264C121.215 23.6851 121.988 22.6922 122.293 22.6922C123.656 22.6922 125.69 23.0024 126.707 23.3955C126.911 23.4782 127.216 23.6023 127.134 24.0367C127.053 24.5539 127.053 25.2985 127.053 25.9398V28.8771C127.053 30.0976 127.48 30.2631 128.538 30.2631L138.546 30.2217C140.661 30.2217 141.353 29.0219 141.617 29.0219C142.167 29.0219 143.713 31.0078 143.713 31.9179M147.496 19.1135C147.496 19.3204 147.333 19.4238 147.069 19.4238H134.722V21.7199C134.722 24.0574 133.867 26.0846 133.277 26.9948C132.972 27.3464 132.301 27.5119 131.874 27.3878C131.528 26.3121 131.02 24.8848 131.02 22.2784V19.4238H122.72C121.317 19.4238 120.381 19.8169 119.954 20.2099C118.855 19.8996 116.638 18.1413 116.638 17.7483C116.638 17.5828 116.841 17.1484 116.943 17.1898C117.614 17.438 119.994 17.4587 122.252 17.4587L141.353 17.4173C143.774 17.4173 144.587 16.0314 144.892 16.0314C145.32 16.0314 147.496 18.1413 147.496 19.0929M93.0826 9.08104C93.0826 11.6254 94.7099 13.3216 97.1712 13.3216C99.6326 13.3216 101.504 11.6254 101.504 9.08104C101.504 6.53671 99.7546 4.8405 97.2119 4.8405C94.6692 4.8405 93.0826 6.5574 93.0826 9.08104ZM89.3804 9.20515C89.3804 5.64723 92.1876 3.26839 96.5203 3.02017C96.561 2.89605 96.6017 2.79262 96.6017 2.66851C96.6017 2.31686 96.5203 1.92383 96.0118 1.55149C96.0118 0.765438 98.6155 1.55149 98.6155 1.98589C98.6155 2.15137 98.4121 2.62714 98.3104 3.02017C102.44 3.33045 105.165 5.70929 105.165 9.20515C105.165 12.8872 102.013 15.3074 97.2933 15.3074C92.5741 15.3074 89.3804 12.8872 89.3804 9.20515ZM112.692 20.0237C112.692 20.1892 112.529 20.2926 112.265 20.2926H103.803V22.1957C103.803 27.5533 102.867 31.7111 102.358 32.9315C102.053 33.2832 101.341 33.4487 100.955 33.3659C100.65 32.373 100.1 29.2909 100.1 24.4918V20.2926L94.1404 20.334V21.5338C94.1404 26.85 93.2046 31.0078 92.7368 32.2282C92.4317 32.5799 91.7197 32.7453 91.2925 32.6626C91.0281 31.6697 90.4789 28.5875 90.4789 23.8299V20.334H87.9159C86.5123 20.334 85.5766 20.727 85.1494 21.1201C84.051 20.8098 81.8337 19.0515 81.8337 18.6171C81.8337 18.493 82.0372 18.0586 82.1389 18.1C82.8101 18.3275 85.1901 18.3689 87.448 18.3689L106.549 18.2861C108.969 18.2861 109.783 16.9002 110.088 16.9002C110.515 16.9002 112.692 19.0308 112.692 19.9823M58.5834 7.48825C58.5834 9.66024 60.1904 11.2117 62.5907 11.2117C64.991 11.2117 66.5979 9.66024 66.5979 7.48825C66.5979 5.31627 64.991 3.84759 62.5907 3.84759C60.1904 3.84759 58.5834 5.35764 58.5834 7.48825ZM54.8812 7.65374C54.8812 4.53021 57.5663 2.2548 61.7363 1.98589C61.777 1.77903 61.8584 1.63423 61.8584 1.42738C61.8584 1.07572 61.7363 0.703381 61.2685 0.351726C61.2685 -0.475697 63.8722 0.351726 63.8722 0.744752C63.8722 0.992979 63.6077 1.5308 63.445 1.9652C67.5743 2.23411 70.3408 4.50953 70.3408 7.63305C70.3408 10.9221 67.1879 13.2595 62.5907 13.2595C57.9935 13.2595 54.8812 10.9221 54.8812 7.63305M73.3513 32.5799C73.3513 32.7867 73.1886 32.8488 72.9241 32.8488H57.7697C55.166 32.8488 54.2506 31.9386 54.1896 29.8701L54.1083 27.2223C54.1083 26.8293 53.0912 26.3121 52.4403 26.0225C52.3996 25.8157 52.9895 25.1537 53.2946 25.1537C54.0269 25.1537 56.8137 25.3192 57.8104 25.6709H67.676L67.7167 22.4646H57.8511C56.6509 22.4646 55.8576 22.7749 55.4305 23.1886C54.0269 22.9818 52.8878 21.1201 52.8674 20.8511C52.8267 20.6443 53.0302 20.2513 53.2132 20.2926C54.4541 20.5202 56.0204 20.5202 58.2783 20.5202H66.3538C67.4523 20.5202 68.0219 20.3961 68.449 19.9617C68.9169 19.9203 72.0291 20.2719 71.9274 20.7891L70.951 25.464C71.6833 26.0225 72.1512 26.9741 72.1512 27.2016C72.1512 27.4085 72.0291 27.5533 71.8461 27.5533C71.5003 27.5533 69.283 27.5119 67.4726 27.5119H57.8104V29.2495C57.8104 30.594 58.1969 30.863 59.9463 30.863H68.4897C70.9103 30.863 71.2561 29.8287 71.5206 29.8287C72.0698 29.8287 73.3513 31.6904 73.3513 32.5178M77.8061 17.2518C77.8061 17.4173 77.6434 17.5208 77.3789 17.5208H71.8867L53.0505 17.5621C51.6876 17.5621 50.7519 17.9552 50.3247 18.3068C49.1856 17.9965 47.1718 16.2796 47.0091 15.8452C46.9684 15.7211 47.2125 15.2867 47.3142 15.3281C47.9855 15.5763 50.3451 15.6177 52.6233 15.6177L71.6833 15.5349C74.0633 15.5349 74.8769 14.149 75.2227 14.149C75.6499 14.149 77.7858 16.2796 77.7858 17.2312M34.7635 17.1691C34.7635 17.5208 34.499 17.5208 33.5633 17.8104C33.1768 17.9345 32.9734 18.555 32.6683 19.5479C31.997 21.6372 29.8612 25.0089 25.4267 25.0089C20.9923 25.0089 18.653 21.1614 18.4903 20.9546C18.2665 20.6443 17.9004 20.3547 17.5952 20.3547C17.3918 20.3547 17.2494 20.4374 17.1274 20.5202C15.5204 21.6372 13.771 22.899 13.771 25.795C13.771 27.6981 15.3373 29.8701 17.9817 29.8701C20.2396 29.8701 21.7246 27.6981 22.1924 26.188C22.3552 25.6709 22.3145 25.464 22.5789 25.464C22.9247 25.464 23.0468 26.2501 23.5146 26.2501C23.9011 26.2501 23.7791 26.0432 24.2876 26.0432C24.7555 26.0432 24.8775 26.6845 25.264 26.6845C25.8132 26.6845 26.5455 26.2087 26.9117 26.2087C27.0337 26.2087 27.2168 26.2087 27.2168 26.3328C27.2168 26.5397 26.871 26.7258 26.5455 27.0154C25.8742 27.6153 25.386 27.967 24.8775 28.8358C23.0875 31.9179 21.0126 32.4764 19.9549 32.8074C19.5684 32.9315 19.1819 33.1177 19.0191 33.49C18.4292 34.8346 18.0834 35.0001 17.9207 35.0001C17.7173 35.0001 17.6563 34.7725 17.6156 34.2554C17.5749 33.6969 17.2698 33.0556 16.212 32.8695C13.5269 32.3523 10.2113 29.5805 10.2113 25.2158C10.2113 21.2855 13.1405 19.7548 14.6254 18.2448C14.8288 18.0379 14.9712 17.8104 14.9712 17.4587V17.3346C14.9712 17.1484 14.9305 16.9002 14.6864 16.5899C13.2015 14.6868 12.0827 13.425 10.0485 13.425C7.83132 13.425 5.87853 15.2867 5.87853 17.9758C5.87853 20.8718 7.2821 21.8647 8.68566 22.2164C9.15351 22.3405 9.31625 22.3819 9.31625 22.5267C9.31625 22.837 9.01112 22.7749 9.01112 23.2507C9.01112 23.6023 9.27556 23.5609 9.27556 24.1195C9.27556 24.5125 8.92976 24.6366 8.92976 25.2365C8.92976 25.7122 9.15351 25.8777 9.15351 26.1466C9.15351 26.4983 9.35693 26.4569 9.35693 27.2223C9.35693 27.4292 9.4383 27.574 9.27556 27.574C9.11283 27.574 8.92976 27.305 8.68566 26.9327C8.13644 26.1053 7.54654 25.5881 7.11936 25.2572C3.72233 22.7542 3.60028 21.6579 2.74594 19.941C2.54252 19.5479 2.4815 18.8653 2.07467 18.6792C0.833836 18.0379 -0.0205078 17.8517 -0.0205078 16.8174C-0.0205078 16.3417 0.528713 16.8174 1.38306 16.8174C1.85091 16.8174 2.40013 16.9002 2.66457 15.9073C3.25448 13.7974 5.69546 10.4256 9.98752 10.4256C14.544 10.4256 16.8019 14.2731 16.9647 14.48C17.2698 14.9144 17.5546 15.0799 17.8597 15.0799C18.0631 15.0799 18.2055 15.0799 18.5513 14.7696C21.4398 12.1632 21.6635 11.0048 21.6635 9.49475C21.6635 7.59168 20.1786 5.37832 17.5342 5.37832C14.8898 5.37832 13.6286 7.50894 13.2828 9.10173C13.1608 9.61887 13.0794 9.88778 12.8557 9.88778C12.5099 9.88778 12.5099 9.41201 12.1234 9.41201C11.4928 9.41201 11.4318 9.68092 11.1063 9.68092C10.6791 9.68092 10.6791 8.89487 10.0485 8.89487C9.88581 8.89487 9.54 9.10173 9.31625 9.10173C8.72634 9.10173 8.68566 9.22584 8.42122 9.22584C8.1161 9.22584 7.79063 9.06036 7.79063 8.83281C7.79063 8.60527 7.99405 8.43979 8.60429 8.12951C9.41795 7.69511 10.1706 7.38482 10.5571 6.49534C11.7572 3.76485 14.422 2.89605 15.439 2.50303C15.8255 2.33754 16.0289 2.19274 16.212 1.8204C17.0257 0.310355 17.3918 0.14487 17.6156 0.14487C17.8393 0.14487 17.819 0.537896 17.9207 1.01366C18.0428 1.57218 18.0428 2.00657 18.9378 2.23411C21.4805 2.91674 25.203 5.29558 25.203 9.63955C25.203 13.9835 20.9923 16.7347 20.7889 16.9002C20.321 17.2518 20.1583 17.5414 20.1583 17.8104C20.1583 18.0172 20.2803 18.2448 20.4024 18.493C21.4194 20.5615 23.1688 21.9061 25.203 21.9061C27.6236 21.9061 29.495 19.61 29.495 17.2312C29.495 14.8523 27.9287 13.425 26.5659 12.9906C26.0573 12.8251 25.8336 12.8251 25.8336 12.5562C25.8336 12.2459 26.1794 12.3494 26.1794 11.8736C26.1794 11.5219 26.0166 11.6047 26.0166 11.0462C26.0166 10.6531 26.4845 10.529 26.4845 9.92915C26.4845 9.45338 26.2607 9.2879 26.2607 9.01898C26.2607 8.66733 26.1387 8.7087 26.1387 7.94333C26.1387 7.73648 26.0573 7.59168 26.22 7.59168C26.4235 7.59168 26.6065 7.86059 26.8506 8.23293C27.3999 9.06036 27.827 9.70161 28.2542 9.97052C31.3258 11.9563 31.997 13.2182 32.709 14.9971C32.8717 15.3901 33.0141 16.0728 33.482 16.3417C33.8685 16.5899 34.7228 16.8588 34.7228 17.1691" fill="white"/>
</g>
<defs>
<clipPath id="clip0_42_231">
<rect width="218" height="35" fill="white"/>
</clipPath>
</defs>
</svg>
