<?xml version="1.0" encoding="UTF-8"?>
<svg id="Layer_1" xmlns="http://www.w3.org/2000/svg" version="1.1" viewBox="0 0 558 156">
  <!-- Generator: Adobe Illustrator 29.3.0, SVG Export Plug-In . SVG Version: 2.1.0 Build 146)  -->
  <defs>
    <style>
      .st0 {
        fill: #004097;
      }
    </style>
  </defs>
  <path class="st0" d="M274.5,80.9v14.4h-20.2c22.6,15.9,16.9,36.1-7,46.2-17,7.2-42.8,7.6-60.3,2.2-25.8-7.9-38.9-29.7-13.5-48.5h-21.2v-14.4h122.2ZM206,99.4c-33.9,3.5-30.9,29.7,2.6,32.3,10.3.8,38.6-2.1,38-16.7-.7-15.4-29.6-16.8-40.6-15.6h0Z"/>
  <path class="st0" d="M504.6,42.5h20.2v-25h21.2v65.3h-21.2v-24.5l-1.4-1.4h-18.8c-4.8,18.2-27.1,27.4-44.6,25.8-14-1.3-34-12.2-36.1-27.3-6.1-43.9,69.1-51.9,80.8-12.9h0ZM459.1,32.2c-6,1.2-13.3,8.6-14.1,14.8-2.3,18,19.4,28,33,16.6,15.5-13.1,1.5-35.4-18.9-31.3h0Z"/>
  <path class="st0" d="M224.5,7v12.5h48.1v14.4h-15.4c21.7,31.7-23.9,43.5-47.7,42.3-22.7-1.2-58.2-14.5-38.9-42.3h-15.4v-14.4h48.1V7h21.2,0ZM204,34.1c-14.6,2-27.2,15.9-9.6,24.4,10.9,5.3,47.5,6.3,47.5-10.8,0-14.5-27.9-15-37.9-13.7Z"/>
  <path class="st0" d="M462.2,90.5v10.6h62.6v-10.6h21.2v48h-102.5c-.2,0-2.4-3-2.4-3.4v-44.6h21.2,0ZM524.8,124.1c-.3-2.9,1.1-6.6-1.4-8.6h-61.1v8.6h62.6,0Z"/>
  <path class="st0" d="M94.5,19.5v14.4h-31.8c1.3,21.2,10.4,37.3,29.8,46.5l-9.1,10.7c-13.2-4.8-26.3-15.1-31.3-28.5-.5-.5-1.3-.2-1.9.7-1.3,1.9-2,4.2-3.9,6.5-8,9.3-19.9,17.8-31.8,21.1l-8.2-11c19.2-8.7,33-24,33.3-46.1H7.9v-14.4h86.6Z"/>
  <path class="st0" d="M357.8,19.5c10,1.8,5.4,19.3,3.9,25.9-4.9,21-16.7,45.1-30.8,61.4-2.9,3.4-18.8,19.3-22.2,19.1l-15.9-9.1c25.5-20.9,46.1-49.4,49.1-83h-47.2v-14.4h63Z"/>
  <rect class="st0" x="381.4" y="17.6" width="21.2" height="121.9"/>
  <path class="st0" d="M43.5,99.1v26.9h83.7v14.4H25.7c-1,0-4.3-3.4-4.3-4.3v-37h22.1Z"/>
  <rect class="st0" x="105.1" y="17.6" width="22.1" height="84.5"/>
</svg>