<svg xmlns="http://www.w3.org/2000/svg" xmlns:xlink="http://www.w3.org/1999/xlink" width="167.853" height="44.467" viewBox="0 0 167.853 44.467">
  <defs>
    <clipPath id="clip-path">
      <rect id="사각형_29" data-name="사각형 29" width="167.853" height="44.467" fill="none"/>
    </clipPath>
  </defs>
  <g id="logo" transform="translate(0 0)">
    <g id="그룹_3" data-name="그룹 3" transform="translate(0 0)" clip-path="url(#clip-path)">
      <path id="패스_6" data-name="패스 6" d="M25.3,39.138c13.361-10.168,9.1-14.306,3.429-28.731S41.737,5.322,41.5,5.2,35.116-.116,27.312,0,7.449,9.106,7.665,16.082s5.7,16.2,7.233,19.272-.544,5.747-6.692,5.037A10.228,10.228,0,0,1,0,34.645s9.7,19.718,22.7,3.074c2.956-3.784-1.95-17.1-1.95-17.1s8.927,6.693,4.551,17.1l-2.016,2.672Z" transform="translate(0 0)" fill="#73b02e"/>
      <rect id="사각형_28" data-name="사각형 28" width="7.274" height="30.279" transform="translate(39.047 13.619)"/>
      <path id="패스_7" data-name="패스 7" d="M49.18,11.392h0a4.618,4.618,0,0,1,4.336,3.029L57.2,24.479c.61,1.748,1.1,3.658,1.667,5.487h.2c.61-1.829,1.1-3.739,1.666-5.487l3.543-10.011a4.619,4.619,0,0,1,4.354-3.076h0a4.618,4.618,0,0,1,4.618,4.618V41.671H66.631V31.307a90.594,90.594,0,0,1,.976-10.487h-.2l-2.52,7.235L60.819,39.11H56.836L52.731,28.056l-2.438-7.235h-.163a100.478,100.478,0,0,1,.935,10.487V41.671h-6.5V16.01a4.618,4.618,0,0,1,4.618-4.618" transform="translate(8.711 2.227)"/>
      <path id="패스_8" data-name="패스 8" d="M74.38,11.392H85.028c6.624,0,12.111,2.4,12.111,9.877,0,7.193-5.527,13.5-11.949,13.5H81.656v6.9H74.38ZM84.825,29.037c3.536,0,5.541-3.839,5.541-6.806,0-3.048-2.249-5.068-5.744-5.068H81.656V29.037Z" transform="translate(14.54 2.227)"/>
      <path id="패스_9" data-name="패스 9" d="M96.581,26.476c0-9.917,5.609-15.526,13.86-15.526S124.3,16.6,124.3,26.476c0,9.917-5.608,15.851-13.858,15.851s-13.86-5.934-13.86-15.851m20.322,0c0-5.853-2.479-9.307-6.462-9.307s-6.422,3.454-6.422,9.307,2.439,9.591,6.422,9.591,6.462-3.738,6.462-9.591" transform="translate(18.88 2.141)"/>
      <path id="패스_10" data-name="패스 10" d="M124.461,11.392h7.274V35.574h11.786v6.1H124.461Z" transform="translate(24.33 2.227)"/>
    </g>
  </g>
</svg>
